<svg xmlns="http://www.w3.org/2000/svg" viewBox="0 0 200 80" fill="#FF6600">
  <path d="M25 25 L35 25 L45 55 L40 55 L38 48 L22 48 L20 55 L15 55 L25 25 Z M30 33 L26 43 L34 43 L30 33 Z"/>
  <path d="M55 35 C55 28 60 25 68 25 C76 25 81 28 81 35 L81 45 C81 52 76 55 68 55 C60 55 55 52 55 45 L55 35 Z M62 45 C62 48 64 50 68 50 C72 50 74 48 74 45 L74 35 C74 32 72 30 68 30 C64 30 62 32 62 35 L62 45 Z"/>
  <path d="M90 25 L105 25 C111 25 115 28 115 33 C115 36 113 38 110 39 C113 40 115 42 115 46 C115 51 111 55 105 55 L90 55 L90 25 Z M97 37 L104 37 C107 37 108 36 108 34 C108 32 107 30 104 30 L97 30 L97 37 Z M97 42 L97 50 L105 50 C108 50 109 49 109 46 C109 43 108 42 105 42 L97 42 Z"/>
  <path d="M125 25 L132 25 L132 38 C132 45 135 50 142 50 C149 50 152 45 152 38 L152 25 L159 25 L159 38 C159 49 154 55 142 55 C130 55 125 49 125 38 L125 25 Z"/>
  <path d="M170 25 L183 25 C190 25 194 28 194 34 C194 38 191 41 187 42 L195 55 L187 55 L180 42 L177 42 L177 55 L170 55 L170 25 Z M177 37 L182 37 C186 37 187 36 187 34 C187 31 186 30 182 30 L177 30 L177 37 Z"/>
  <path d="M35 60 L40 60 C42 60 43 61 43 63 C43 64 42 65 41 65 C42 65 43 66 43 67 C43 69 42 70 40 70 L35 70 L35 60 Z M38 64 L40 64 C41 64 41 64 41 63 C41 62 41 62 40 62 L38 62 L38 64 Z M38 66 L38 68 L40 68 C41 68 41 68 41 67 C41 66 41 66 40 66 L38 66 Z"/>
  <path d="M50 67 L54 60 L56 60 L56 70 L54 70 L54 63 L50 70 L48 70 L48 60 L50 60 L50 67 Z"/>
</svg>