<svg xmlns="http://www.w3.org/2000/svg" viewBox="0 0 200 80" fill="#000">
  <path d="M40 20 L60 64 L48 64 L45 56 L25 56 L22 64 L10 64 L30 20 L40 20 Z M35 35 L30 48 L40 48 L35 35 Z"/>
  <path d="M68 42 C68 35 73 30 82 30 C90 30 94 34 94 40 L86 40 C86 37 84 35 82 35 C78 35 76 38 76 42 L76 52 C76 56 78 59 82 59 C85 59 87 57 87 53 L76 53 L76 48 L95 48 L95 64 L88 64 L88 60 C86 63 83 65 79 65 C71 65 68 60 68 52 L68 42 Z"/>
  <path d="M105 46 C105 36 110 30 120 30 C126 30 130 33 132 38 L124 40 C123 37 122 35 120 35 C116 35 113 38 113 46 L113 48 C113 56 116 59 120 59 C122 59 124 57 125 54 L133 56 C131 61 127 65 120 65 C110 65 105 59 105 48 L105 46 Z"/>
  <path d="M145 46 C145 36 151 30 161 30 C171 30 177 36 177 46 L177 48 C177 58 171 65 161 65 C151 65 145 58 145 48 L145 46 Z M153 48 C153 56 156 59 161 59 C166 59 169 56 169 48 L169 46 C169 38 166 35 161 35 C156 35 153 38 153 46 L153 48 Z"/>
</svg>