<svg xmlns="http://www.w3.org/2000/svg" viewBox="0 0 200 80" fill="#0071C5">
  <rect x="10" y="30" width="8" height="35" rx="2"/>
  <path d="M30 30 L38 30 L38 50 C38 58 42 65 52 65 C58 65 62 62 65 58 L65 65 L73 65 L73 30 L81 30 L81 65 L73 65 C73 62 72 60 72 58 C68 63 62 67 52 67 C38 67 30 58 30 48 L30 30 Z"/>
  <path d="M95 30 L103 30 L103 40 L115 40 L115 30 L123 30 L123 65 L115 65 L115 48 L103 48 L103 65 L95 65 L95 30 Z"/>
  <path d="M138 38 C138 32 143 28 152 28 C161 28 166 32 166 38 L166 57 C166 59 167 60 169 60 L169 65 C164 65 161 63 160 59 C157 63 152 67 145 67 C138 67 133 63 133 57 C133 51 138 47 148 46 L160 45 L160 38 C160 34 157 32 152 32 C147 32 144 34 144 38 L138 38 Z M160 49 L148 50 C143 51 140 53 140 57 C140 60 142 62 146 62 C152 62 158 59 160 55 L160 49 Z"/>
  <rect x="180" y="22" width="8" height="8" rx="2"/>
  <rect x="180" y="30" width="8" height="35" rx="2"/>
</svg>